<?xml version="1.0" standalone="no"?>
<!DOCTYPE svg PUBLIC "-//W3C//DTD SVG 20010904//EN"
 "http://www.w3.org/TR/2001/REC-SVG-20010904/DTD/svg10.dtd">
<svg version="1.0" xmlns="http://www.w3.org/2000/svg"
 width="215.000000pt" height="215.000000pt" viewBox="0 0 215.000000 215.000000"
 preserveAspectRatio="xMidYMid meet">
<metadata>
Created by potrace 1.14, written by Peter Selinger 2001-2017
</metadata>
<g transform="translate(0.000000,215.000000) scale(0.100000,-0.100000)"
fill="#000000" stroke="none">
<path d="M894 2135 c-39 -12 -84 -37 -111 -60 -6 -5 -37 -30 -68 -55 -68 -55
-140 -146 -150 -190 -6 -27 -9 -30 -17 -17 -13 24 -73 22 -90 -2 -8 -11 -30
-22 -50 -26 -60 -11 -141 -66 -162 -110 -27 -57 -19 -211 14 -277 13 -27 28
-48 32 -48 5 0 18 -9 29 -19 25 -23 80 -35 120 -26 23 5 29 3 29 -10 0 -35 43
-97 98 -140 31 -25 63 -45 70 -45 17 0 16 -1 -25 -70 -49 -84 -55 -144 -18
-188 25 -30 28 -31 53 -18 15 7 40 16 56 20 27 7 28 6 16 -11 -8 -10 -23 -28
-34 -41 -17 -19 -18 -25 -7 -32 11 -6 27 6 60 42 55 61 64 75 56 88 -9 14 -23
13 -102 -13 l-71 -24 -11 24 c-16 35 -14 44 25 121 l35 71 128 -6 c79 -4 139
-2 158 4 27 10 39 5 146 -59 92 -55 121 -78 139 -109 l22 -39 72 0 c51 0 75 4
84 15 17 21 -3 27 -76 23 -58 -3 -59 -2 -84 34 -23 34 -63 63 -184 133 l-39
23 39 20 c67 35 122 105 150 195 14 45 21 56 33 51 9 -4 79 -9 155 -12 l139
-5 -8 -111 c-5 -61 -9 -138 -9 -171 l-1 -59 35 -8 c59 -13 60 -11 60 132 0 98
4 135 14 145 18 18 30 95 16 109 -16 16 -12 76 9 142 10 32 24 78 30 102 13
47 52 73 81 54 24 -15 24 -41 0 -118 -27 -86 -23 -104 23 -104 55 0 78 43 97
183 14 98 7 128 -36 166 -130 115 -265 -27 -281 -296 -4 -61 -7 -72 -25 -76
-14 -4 -19 -12 -16 -29 l3 -23 -120 3 c-66 2 -135 8 -152 13 -32 10 -33 13
-33 62 -1 76 -27 123 -113 201 -42 39 -75 72 -73 74 2 2 17 -3 33 -11 28 -14
53 -13 53 4 0 13 -53 38 -110 50 -39 8 -50 15 -50 30 0 56 55 122 123 148 34
13 34 22 0 54 -16 14 -53 51 -84 81 -61 60 -63 61 -125 41z m-442 -415 c4 -25
-2 -34 -34 -60 -21 -17 -38 -37 -38 -45 0 -21 7 -19 60 20 26 19 52 35 58 35
6 0 2 -22 -9 -51 -12 -31 -23 -92 -27 -157 -6 -98 -9 -107 -31 -118 -57 -29
-143 39 -158 125 -14 83 -10 174 10 205 20 29 107 76 143 76 16 0 23 -7 26
-30z"/>
<path d="M1000 726 c-52 -11 -56 -14 -83 -64 -27 -50 -28 -54 -12 -72 10 -11
22 -55 31 -112 16 -108 17 -157 4 -178 -6 -10 -4 -22 5 -37 10 -15 15 -58 17
-140 l3 -118 25 0 c25 0 25 1 28 98 1 55 7 97 13 97 5 0 32 -35 60 -77 54 -83
82 -99 87 -51 4 31 -57 122 -117 176 -34 31 -35 33 -17 44 47 27 108 95 136
151 50 100 38 204 -30 261 -18 14 -37 26 -43 26 -7 0 -21 2 -32 4 -11 2 -45
-1 -75 -8z m94 -56 c52 -19 74 -125 40 -193 -16 -32 -102 -127 -115 -127 -4 0
-10 30 -14 68 -3 37 -10 85 -15 107 -5 22 -10 58 -12 80 -3 37 0 41 32 57 40
21 49 22 84 8z"/>
<path d="M494 715 c-4 -8 1 -46 11 -83 9 -37 30 -132 46 -212 32 -161 80 -323
104 -357 21 -29 50 -29 69 0 19 28 61 269 81 468 9 84 18 156 21 160 8 14 -9
39 -27 39 -28 0 -36 -25 -48 -150 -12 -116 -31 -257 -52 -379 l-12 -66 -25 65
c-13 36 -35 121 -49 190 -62 318 -66 335 -91 338 -13 2 -25 -3 -28 -13z"/>
<path d="M1419 711 c-42 -14 -77 -40 -99 -78 -26 -44 -90 -259 -90 -302 0 -56
80 -192 138 -236 42 -31 92 -31 137 2 103 76 161 247 104 304 -19 19 -29 21
-83 16 -33 -3 -78 -11 -98 -17 -31 -9 -38 -16 -38 -37 0 -25 1 -26 53 -19 28
3 69 9 90 12 36 6 37 6 37 -23 0 -17 -5 -45 -11 -64 -16 -46 -96 -139 -120
-139 -43 0 -149 143 -149 203 0 35 45 209 64 246 20 37 49 61 93 76 29 10 38
18 38 37 0 26 -22 32 -66 19z"/>
</g>
</svg>
